<svg xmlns="http://www.w3.org/2000/svg" xmlns:xlink="http://www.w3.org/1999/xlink" width="500" zoomAndPan="magnify" viewBox="0 0 375 374.999991" height="500" preserveAspectRatio="xMidYMid meet" version="1.0"><defs><g/><clipPath id="4ad84d088d"><path d="M 78 183 L 129.941406 183 L 129.941406 192 L 78 192 Z M 78 183 " clip-rule="nonzero"/></clipPath><clipPath id="00811d8d87"><path d="M 88 163 L 129.941406 163 L 129.941406 172 L 88 172 Z M 88 163 " clip-rule="nonzero"/></clipPath><clipPath id="9434000560"><path d="M 109 173 L 129.941406 173 L 129.941406 182 L 109 182 Z M 109 173 " clip-rule="nonzero"/></clipPath><clipPath id="a82d0c783f"><path d="M 65.441406 183 L 75 183 L 75 192 L 65.441406 192 Z M 65.441406 183 " clip-rule="nonzero"/></clipPath><clipPath id="ac7ff22f89"><path d="M 90 193 L 129.941406 193 L 129.941406 202 L 90 202 Z M 90 193 " clip-rule="nonzero"/></clipPath><clipPath id="0baa5f9c81"><path d="M 94 202 L 129.941406 202 L 129.941406 211 L 94 211 Z M 94 202 " clip-rule="nonzero"/></clipPath></defs><g clip-path="url(#4ad84d088d)"><path fill="#0091ff" d="M 152.207031 183.402344 L 110.691406 183.402344 L 108.917969 186.46875 L 104.816406 186.46875 L 103.042969 183.402344 C 101.511719 183.402344 82.359375 183.402344 80.832031 183.402344 L 78.539062 187.375 L 80.832031 191.347656 C 82.359375 191.347656 101.511719 191.347656 103.042969 191.347656 L 104.816406 188.28125 L 108.917969 188.28125 L 110.691406 191.347656 L 152.207031 191.347656 C 152.664062 188.722656 152.664062 186.035156 152.207031 183.402344 Z M 152.207031 183.402344 " fill-opacity="1" fill-rule="nonzero"/></g><g clip-path="url(#00811d8d87)"><path fill="#0091ff" d="M 95.210938 171.820312 L 96.984375 168.757812 L 101.085938 168.757812 L 102.859375 171.820312 L 146.628906 171.820312 C 138.402344 162.546875 129.175781 163.871094 118.050781 163.871094 L 102.859375 163.871094 L 101.085938 166.9375 L 96.984375 166.9375 L 95.210938 163.871094 L 90.625 163.871094 L 88.332031 167.84375 L 90.625 171.8125 L 95.210938 171.8125 Z M 95.210938 171.820312 " fill-opacity="1" fill-rule="nonzero"/></g><g clip-path="url(#9434000560)"><path fill="#0091ff" d="M 122.628906 176.707031 L 118.523438 176.707031 L 116.75 173.640625 L 112.164062 173.640625 L 109.871094 177.613281 L 112.164062 181.585938 L 116.75 181.585938 L 118.523438 178.519531 L 122.628906 178.519531 L 124.402344 181.585938 L 151.820312 181.585938 C 151.082031 178.683594 149.796875 175.996094 148.085938 173.632812 L 124.402344 173.632812 Z M 122.628906 176.707031 " fill-opacity="1" fill-rule="nonzero"/></g><g clip-path="url(#a82d0c783f)"><path fill="#0091ff" d="M 67.734375 183.402344 L 65.441406 187.375 L 67.734375 191.355469 L 72.328125 191.355469 L 74.621094 187.375 L 72.328125 183.402344 Z M 67.734375 183.402344 " fill-opacity="1" fill-rule="nonzero"/></g><path fill="#0091ff" d="M 96.777344 177.613281 L 99.070312 181.585938 L 103.664062 181.585938 L 105.957031 177.613281 L 103.664062 173.640625 L 99.070312 173.640625 Z M 96.777344 177.613281 " fill-opacity="1" fill-rule="nonzero"/><path fill="#0091ff" d="M 83.40625 202.929688 L 81.105469 206.90625 L 83.40625 210.878906 L 87.992188 210.878906 L 90.285156 206.90625 L 87.992188 202.929688 Z M 83.40625 202.929688 " fill-opacity="1" fill-rule="nonzero"/><g clip-path="url(#ac7ff22f89)"><path fill="#0091ff" d="M 103.042969 196.230469 L 98.9375 196.230469 L 97.164062 193.167969 L 92.578125 193.167969 L 90.285156 197.136719 L 92.578125 201.109375 L 97.164062 201.109375 L 98.9375 198.042969 L 103.042969 198.042969 L 104.816406 201.109375 L 148.078125 201.109375 C 149.789062 198.746094 151.074219 196.058594 151.8125 193.160156 C 137.449219 193.160156 119.171875 193.160156 104.808594 193.160156 Z M 103.042969 196.230469 " fill-opacity="1" fill-rule="nonzero"/></g><g clip-path="url(#0baa5f9c81)"><path fill="#0091ff" d="M 114.796875 206 L 110.691406 206 L 108.917969 202.9375 C 104.78125 202.9375 100.636719 202.9375 96.496094 202.9375 L 94.203125 206.90625 L 96.496094 210.878906 C 100.636719 210.878906 104.773438 210.878906 108.917969 210.878906 L 110.691406 207.8125 L 114.796875 207.8125 L 116.570312 210.878906 C 128.316406 210.878906 138.191406 212.445312 146.628906 202.929688 L 116.570312 202.929688 Z M 114.796875 206 " fill-opacity="1" fill-rule="nonzero"/></g><g fill="#ffffff" fill-opacity="1"><g transform="translate(163.935297, 187.328914)"><g><path d="M 13.1875 -4.203125 L 13.1875 0 L 0.5625 -5.609375 L 0.5625 -9.25 L 13.1875 -14.859375 L 13.1875 -10.65625 L 5.1875 -7.4375 Z M 13.1875 -4.203125 "/></g></g></g><g fill="#ffffff" fill-opacity="1"><g transform="translate(183.85155, 187.328914)"><g><path d="M 18.515625 -10.9375 L 14.578125 -3.921875 L 10.65625 -3.921875 L 6.734375 -10.9375 L 6.734375 0 L 1.6875 0 L 1.6875 -19.625 L 7.015625 -19.625 L 12.625 -9.25 L 18.234375 -19.625 L 23.5625 -19.625 L 23.5625 0 L 18.515625 0 Z M 18.515625 -10.9375 "/></g></g></g><g fill="#ffffff" fill-opacity="1"><g transform="translate(214.707308, 187.328914)"><g><path d="M 0.84375 -4.203125 L 5.890625 -4.203125 L 5.890625 0 L 0.84375 0 Z M 0.84375 -4.203125 "/></g></g></g><g fill="#ffffff" fill-opacity="1"><g transform="translate(227.050054, 187.328914)"><g><path d="M 6.734375 0 L 1.6875 0 L 1.6875 -19.625 L 17.25 -19.625 L 17.25 -15.703125 L 6.734375 -15.703125 L 6.734375 -11.078125 L 15 -11.078125 L 15 -7.15625 L 6.734375 -7.15625 Z M 6.734375 0 "/></g></g></g><g fill="#ffffff" fill-opacity="1"><g transform="translate(250.192052, 187.328914)"><g><path d="M 0 0 L 8.40625 -19.625 L 13.1875 -19.625 L 5.046875 0 Z M 0 0 "/></g></g></g><g fill="#ffffff" fill-opacity="1"><g transform="translate(268.986302, 187.328914)"><g><path d="M 9.109375 -7.4375 L 1.125 -10.65625 L 1.125 -14.859375 L 13.75 -9.25 L 13.75 -5.609375 L 1.125 0 L 1.125 -4.203125 Z M 9.109375 -7.4375 "/></g></g></g><g fill="#ffffff" fill-opacity="1"><g transform="translate(154.508136, 207.160404)"><g><path d="M 3.046875 0 L 0.765625 0 L 0.765625 -8.90625 L 7.828125 -8.90625 L 7.828125 -7.125 L 3.046875 -7.125 L 3.046875 -5.03125 L 6.796875 -5.03125 L 6.796875 -3.25 L 3.046875 -3.25 Z M 3.046875 0 "/></g></g></g><g fill="#ffffff" fill-opacity="1"><g transform="translate(169.430878, 207.160404)"><g><path d="M 0.765625 -8.90625 L 6.109375 -8.90625 C 6.992188 -8.90625 7.640625 -8.703125 8.046875 -8.296875 C 8.453125 -7.890625 8.65625 -7.242188 8.65625 -6.359375 L 8.65625 -5.21875 C 8.65625 -4.507812 8.535156 -3.957031 8.296875 -3.5625 C 8.066406 -3.175781 7.695312 -2.921875 7.1875 -2.796875 L 8.78125 0 L 6.296875 0 L 4.828125 -2.671875 L 3.046875 -2.671875 L 3.046875 0 L 0.765625 0 Z M 6.359375 -6.359375 C 6.359375 -6.867188 6.101562 -7.125 5.59375 -7.125 L 3.046875 -7.125 L 3.046875 -4.453125 L 5.59375 -4.453125 C 6.101562 -4.453125 6.359375 -4.707031 6.359375 -5.21875 Z M 6.359375 -6.359375 "/></g></g></g><g fill="#ffffff" fill-opacity="1"><g transform="translate(185.562017, 207.160404)"><g><path d="M 6.484375 -6.484375 C 6.484375 -6.992188 6.226562 -7.25 5.71875 -7.25 L 3.5625 -7.25 C 3.050781 -7.25 2.796875 -6.992188 2.796875 -6.484375 L 2.796875 -2.421875 C 2.796875 -1.910156 3.050781 -1.65625 3.5625 -1.65625 L 5.71875 -1.65625 C 6.226562 -1.65625 6.484375 -1.910156 6.484375 -2.421875 Z M 8.78125 -2.421875 C 8.78125 -1.523438 8.578125 -0.875 8.171875 -0.46875 C 7.765625 -0.0703125 7.117188 0.125 6.234375 0.125 L 3.046875 0.125 C 2.160156 0.125 1.515625 -0.0703125 1.109375 -0.46875 C 0.710938 -0.875 0.515625 -1.523438 0.515625 -2.421875 L 0.515625 -6.484375 C 0.515625 -7.378906 0.710938 -8.023438 1.109375 -8.421875 C 1.515625 -8.828125 2.160156 -9.03125 3.046875 -9.03125 L 6.234375 -9.03125 C 7.117188 -9.03125 7.765625 -8.828125 8.171875 -8.421875 C 8.578125 -8.023438 8.78125 -7.378906 8.78125 -6.484375 Z M 8.78125 -2.421875 "/></g></g></g><g fill="#ffffff" fill-opacity="1"><g transform="translate(201.820346, 207.160404)"><g><path d="M 8.515625 0 L 6.109375 0 L 3.046875 -5.34375 L 3.046875 0 L 0.765625 0 L 0.765625 -8.90625 L 3.171875 -8.90625 L 6.234375 -3.5625 L 6.234375 -8.90625 L 8.515625 -8.90625 Z M 8.515625 0 "/></g></g></g><g fill="#ffffff" fill-opacity="1"><g transform="translate(218.078675, 207.160404)"><g><path d="M 5.09375 0 L 2.796875 0 L 2.796875 -7.125 L 0.125 -7.125 L 0.125 -8.90625 L 7.765625 -8.90625 L 7.765625 -7.125 L 5.09375 -7.125 Z M 5.09375 0 "/></g></g></g><g fill="#ffffff" fill-opacity="1"><g transform="translate(232.937827, 207.160404)"><g><path d="M 0.375 -3.5625 L 0.375 -5.34375 L 5.59375 -5.34375 L 5.59375 -3.5625 Z M 0.375 -3.5625 "/></g></g></g><g fill="#ffffff" fill-opacity="1"><g transform="translate(245.888995, 207.160404)"><g><path d="M 7.828125 0 L 0.765625 0 L 0.765625 -8.90625 L 7.828125 -8.90625 L 7.828125 -7.125 L 3.046875 -7.125 L 3.046875 -5.40625 L 6.796875 -5.40625 L 6.796875 -3.625 L 3.046875 -3.625 L 3.046875 -1.78125 L 7.828125 -1.78125 Z M 7.828125 0 "/></g></g></g><g fill="#ffffff" fill-opacity="1"><g transform="translate(260.938939, 207.160404)"><g><path d="M 8.515625 0 L 6.109375 0 L 3.046875 -5.34375 L 3.046875 0 L 0.765625 0 L 0.765625 -8.90625 L 3.171875 -8.90625 L 6.234375 -3.5625 L 6.234375 -8.90625 L 8.515625 -8.90625 Z M 8.515625 0 "/></g></g></g><g fill="#ffffff" fill-opacity="1"><g transform="translate(277.197268, 207.160404)"><g><path d="M 5.71875 -8.90625 C 6.675781 -8.90625 7.40625 -8.65625 7.90625 -8.15625 C 8.40625 -7.664062 8.65625 -6.941406 8.65625 -5.984375 L 8.65625 -2.921875 C 8.65625 -1.960938 8.40625 -1.234375 7.90625 -0.734375 C 7.40625 -0.242188 6.675781 0 5.71875 0 L 0.765625 0 L 0.765625 -8.90625 Z M 6.359375 -5.984375 C 6.359375 -6.742188 5.976562 -7.125 5.21875 -7.125 L 3.046875 -7.125 L 3.046875 -1.78125 L 5.21875 -1.78125 C 5.976562 -1.78125 6.359375 -2.160156 6.359375 -2.921875 Z M 6.359375 -5.984375 "/></g></g></g><g fill="#ffffff" fill-opacity="1"><g transform="translate(200.320717, 224.465028)"><g><path d="M 5.71875 -8.90625 C 6.675781 -8.90625 7.40625 -8.65625 7.90625 -8.15625 C 8.40625 -7.664062 8.65625 -6.941406 8.65625 -5.984375 L 8.65625 -2.921875 C 8.65625 -1.960938 8.40625 -1.234375 7.90625 -0.734375 C 7.40625 -0.242188 6.675781 0 5.71875 0 L 0.765625 0 L 0.765625 -8.90625 Z M 6.359375 -5.984375 C 6.359375 -6.742188 5.976562 -7.125 5.21875 -7.125 L 3.046875 -7.125 L 3.046875 -1.78125 L 5.21875 -1.78125 C 5.976562 -1.78125 6.359375 -2.160156 6.359375 -2.921875 Z M 6.359375 -5.984375 "/></g></g></g><g fill="#ffffff" fill-opacity="1"><g transform="translate(216.451855, 224.465028)"><g><path d="M 7.828125 0 L 0.765625 0 L 0.765625 -8.90625 L 7.828125 -8.90625 L 7.828125 -7.125 L 3.046875 -7.125 L 3.046875 -5.40625 L 6.796875 -5.40625 L 6.796875 -3.625 L 3.046875 -3.625 L 3.046875 -1.78125 L 7.828125 -1.78125 Z M 7.828125 0 "/></g></g></g><g fill="#ffffff" fill-opacity="1"><g transform="translate(231.501799, 224.465028)"><g><path d="M 4.515625 -2.671875 L 6.671875 -8.90625 L 9.15625 -8.90625 L 5.78125 0 L 3.25 0 L -0.125 -8.90625 L 2.359375 -8.90625 Z M 4.515625 -2.671875 "/></g></g></g><path stroke-linecap="round" transform="matrix(0, 0.75, -0.75, 0, 131.314947, 159.251942)" fill="none" stroke-linejoin="miter" d="M 1.497411 1.498055 L 73.830749 1.498055 " stroke="#0091ff" stroke-width="3" stroke-opacity="1" stroke-miterlimit="4"/></svg>