<svg width="203" height="6" viewBox="0 0 203 6" fill="none" xmlns="http://www.w3.org/2000/svg">
<path d="M197.333 3C197.333 4.47276 198.527 5.66667 200 5.66667C201.473 5.66667 202.667 4.47276 202.667 3C202.667 1.52724 201.473 0.333333 200 0.333333C198.527 0.333333 197.333 1.52724 197.333 3ZM0 3.5H1V2.5H0V3.5ZM3 3.5H5V2.5H3V3.5ZM7 3.5H9V2.5H7V3.5ZM11 3.5H13V2.5H11V3.5ZM15 3.5H17V2.5H15V3.5ZM19 3.5H21V2.5H19V3.5ZM23 3.5H25V2.5H23V3.5ZM27 3.5H29V2.5H27V3.5ZM31 3.5H33V2.5H31V3.5ZM35 3.5H37V2.5H35V3.5ZM39 3.5H41V2.5H39V3.5ZM43 3.5H45V2.5H43V3.5ZM47 3.5H49V2.5H47V3.5ZM51 3.5H53V2.5H51V3.5ZM55 3.5H57V2.5H55V3.5ZM59 3.5H61V2.5H59V3.5ZM63 3.5H65V2.5H63V3.5ZM67 3.5H69V2.5H67V3.5ZM71 3.5H73V2.5H71V3.5ZM75 3.5H77V2.5H75V3.5ZM79 3.5H81V2.5H79V3.5ZM83 3.5H85V2.5H83V3.5ZM87 3.5H89V2.5H87V3.5ZM91 3.5H93V2.5H91V3.5ZM95 3.5H97V2.5H95V3.5ZM99 3.5H101V2.5H99V3.5ZM103 3.5H105V2.5H103V3.5ZM107 3.5H109V2.5H107V3.5ZM111 3.5H113V2.5H111V3.5ZM115 3.5H117V2.5H115V3.5ZM119 3.5H121V2.5H119V3.5ZM123 3.5H125V2.5H123V3.5ZM127 3.5H129V2.5H127V3.5ZM131 3.5H133V2.5H131V3.5ZM135 3.5H137V2.5H135V3.5ZM139 3.5H141V2.5H139V3.5ZM143 3.5H145V2.5H143V3.5ZM147 3.5H149V2.5H147V3.5ZM151 3.5H153V2.5H151V3.5ZM155 3.5H157V2.5H155V3.5ZM159 3.5H161V2.5H159V3.5ZM163 3.5H165V2.5H163V3.5ZM167 3.5H169V2.5H167V3.5ZM171 3.5H173V2.5H171V3.5ZM175 3.5H177V2.5H175V3.5ZM179 3.5H181V2.5H179V3.5ZM183 3.5H185V2.5H183V3.5ZM187 3.5H189V2.5H187V3.5ZM191 3.5H193V2.5H191V3.5ZM195 3.5H197V2.5H195V3.5ZM199 3.5H200V2.5H199V3.5Z" fill="#FDCC91" fill-opacity="0.8"/>
</svg>
