<svg width="50" height="55" viewBox="0 0 50 55" fill="none" xmlns="http://www.w3.org/2000/svg">
<g filter="url(#filter0_d_7_16)">
<path d="M4 3H46V45H4V3Z" fill="#F5DE19"/>
<path d="M32.2135 35.8125C32.5713 36.5394 33.1273 37.1503 33.8173 37.575C34.5074 37.9996 35.3033 38.2206 36.1135 38.2125C37.7485 38.2125 38.794 37.395 38.794 36.2625C38.794 34.9125 37.72 34.4295 35.92 33.642L34.933 33.219C32.083 32.0055 30.193 30.486 30.193 27.273C30.193 24.3135 32.443 22.059 35.9725 22.059C37.115 21.9765 38.2566 22.2322 39.2548 22.7942C40.253 23.3563 41.0636 24.1998 41.5855 25.2195L38.5 27.192C38.299 26.6864 37.9491 26.2538 37.4966 25.9516C37.0442 25.6494 36.5105 25.4919 35.9665 25.5C35.7291 25.4762 35.4894 25.5022 35.2626 25.5762C35.0359 25.6501 34.827 25.7706 34.6493 25.9298C34.4717 26.0889 34.3291 26.2834 34.2307 26.5007C34.1324 26.718 34.0803 26.9534 34.078 27.192C34.078 28.3755 34.8115 28.8555 36.505 29.592L37.492 30.015C40.846 31.4535 42.742 32.919 42.742 36.2145C42.742 39.768 39.9505 41.715 36.202 41.715C34.7414 41.808 33.2852 41.4764 32.0089 40.7602C30.7326 40.0439 29.6909 38.9736 29.0095 37.6785L32.2135 35.8125ZM18.271 36.1545C18.8905 37.254 19.4545 38.184 20.8105 38.184C22.1065 38.184 22.9255 37.677 22.9255 35.7045V22.284H26.872V35.757C26.872 39.843 24.472 41.703 20.9785 41.703C19.7436 41.7705 18.5172 41.4627 17.4605 40.8202C16.4038 40.1777 15.5663 39.2304 15.058 38.103L18.271 36.1545Z" fill="black"/>
</g>
<defs>
<filter id="filter0_d_7_16" x="-3" y="0" width="56" height="58" filterUnits="userSpaceOnUse" color-interpolation-filters="sRGB">
<feFlood flood-opacity="0" result="BackgroundImageFix"/>
<feColorMatrix in="SourceAlpha" type="matrix" values="0 0 0 0 0 0 0 0 0 0 0 0 0 0 0 0 0 0 127 0" result="hardAlpha"/>
<feOffset dy="6"/>
<feGaussianBlur stdDeviation="2"/>
<feComposite in2="hardAlpha" operator="out"/>
<feColorMatrix type="matrix" values="0 0 0 0 0 0 0 0 0 0 0 0 0 0 0 0 0 0 0.4 0"/>
<feBlend mode="normal" in2="BackgroundImageFix" result="effect1_dropShadow_7_16"/>
<feBlend mode="normal" in="SourceGraphic" in2="effect1_dropShadow_7_16" result="shape"/>
</filter>
</defs>
</svg>
