<svg width="24" height="23" viewBox="0 0 24 23" fill="none" xmlns="http://www.w3.org/2000/svg">
<path d="M21.3333 0C22.0406 0 22.7189 0.266245 23.219 0.740164C23.719 1.21408 24 1.85686 24 2.52708V20.2166C24 20.8869 23.719 21.5296 23.219 22.0036C22.7189 22.4775 22.0406 22.7437 21.3333 22.7437H2.66667C1.95942 22.7437 1.28115 22.4775 0.781048 22.0036C0.280951 21.5296 0 20.8869 0 20.2166V2.52708C0 1.85686 0.280951 1.21408 0.781048 0.740164C1.28115 0.266245 1.95942 0 2.66667 0H21.3333ZM20.6667 19.5849V12.8881C20.6667 11.7956 20.2087 10.7479 19.3936 9.97544C18.5784 9.20295 17.4728 8.76897 16.32 8.76897C15.1867 8.76897 13.8667 9.42601 13.2267 10.4116V9.00904H9.50667V19.5849H13.2267V13.3556C13.2267 12.3827 14.0533 11.5867 15.08 11.5867C15.5751 11.5867 16.0499 11.773 16.3999 12.1048C16.75 12.4365 16.9467 12.8865 16.9467 13.3556V19.5849H20.6667ZM5.17333 7.02528C5.76742 7.02528 6.33717 6.80164 6.75725 6.40354C7.17733 6.00545 7.41333 5.46552 7.41333 4.90253C7.41333 3.72744 6.41333 2.76715 5.17333 2.76715C4.57571 2.76715 4.00257 2.99213 3.57999 3.39259C3.1574 3.79305 2.92 4.3362 2.92 4.90253C2.92 6.07763 3.93333 7.02528 5.17333 7.02528ZM7.02667 19.5849V9.00904H3.33333V19.5849H7.02667Z" fill="white"/>
</svg>
